<svg width="64" height="64" viewBox="0 0 64 64" fill="none" xmlns="http://www.w3.org/2000/svg">
<path d="M16 48.618L22.9236 38.8168H40.6608L47.5844 48.618L44.1 48.0185L43.5005 51.5028L36 40.8848H27.5844L20.0838 51.5028L19.4843 48.0185L16 48.618Z" fill="#FF7777"/>
<path fill-rule="evenodd" clip-rule="evenodd" d="M22.4057 37.8168H41.1788L49.7941 50.0129L44.916 49.1736L44.0767 54.0516L35.4821 41.8848H28.1023L19.5077 54.0516L18.6684 49.1736L13.7903 50.0129L22.4057 37.8168ZM23.4415 39.8168L18.2097 47.2231L20.3003 46.8634L20.66 48.954L27.0665 39.8848H36.518L42.9244 48.954L43.2841 46.8634L45.3747 47.2231L40.1429 39.8168H23.4415Z" fill="black"/>
<path d="M43 25C43 31.0751 38.0751 36 32 36C25.9249 36 21 31.0751 21 25C21 18.9249 25.9249 14 32 14C38.0751 14 43 18.9249 43 25Z" fill="#FFF1BF"/>
<path fill-rule="evenodd" clip-rule="evenodd" d="M32 41C40.8366 41 48 33.8366 48 25C48 16.1634 40.8366 9 32 9C23.1634 9 16 16.1634 16 25C16 33.8366 23.1634 41 32 41ZM32 36C38.0751 36 43 31.0751 43 25C43 18.9249 38.0751 14 32 14C25.9249 14 21 18.9249 21 25C21 31.0751 25.9249 36 32 36Z" fill="#FFDF6D"/>
<path fill-rule="evenodd" clip-rule="evenodd" d="M32 10C23.7157 10 17 16.7157 17 25C17 33.2843 23.7157 40 32 40C40.2843 40 47 33.2843 47 25C47 16.7157 40.2843 10 32 10ZM15 25C15 15.6112 22.6112 8 32 8C41.3888 8 49 15.6112 49 25C49 34.3888 41.3888 42 32 42C22.6112 42 15 34.3888 15 25Z" fill="black"/>
<path fill-rule="evenodd" clip-rule="evenodd" d="M32 15C26.4772 15 22 19.4772 22 25C22 30.5228 26.4772 35 32 35C33.8231 35 35.5294 34.5131 36.9993 33.6628C37.4773 33.3862 38.0891 33.5496 38.3656 34.0277C38.6421 34.5057 38.4788 35.1175 38.0007 35.394C36.2347 36.4156 34.1841 37 32 37C25.3726 37 20 31.6274 20 25C20 18.3726 25.3726 13 32 13C38.6274 13 44 18.3726 44 25C44 27.6515 43.1389 30.1048 41.6813 32.0915C41.3546 32.5368 40.7288 32.633 40.2835 32.3063C39.8382 31.9796 39.7421 31.3538 40.0688 30.9085C41.2831 29.2532 42 27.2118 42 25C42 19.4772 37.5228 15 32 15Z" fill="black"/>
<path fill-rule="evenodd" clip-rule="evenodd" d="M30.5 28.5C28.567 28.5 27 30.067 27 32H25C25 28.9624 27.4624 26.5 30.5 26.5H33.5C36.5376 26.5 39 28.9624 39 32H37C37 30.067 35.433 28.5 33.5 28.5H30.5Z" fill="black"/>
<path fill-rule="evenodd" clip-rule="evenodd" d="M32 18C30.3431 18 29 19.3431 29 21C29 22.6569 30.3431 24 32 24C33.6569 24 35 22.6569 35 21C35 19.3431 33.6569 18 32 18ZM27 21C27 18.2386 29.2386 16 32 16C34.7614 16 37 18.2386 37 21C37 23.7614 34.7614 26 32 26C29.2386 26 27 23.7614 27 21Z" fill="black"/>
</svg>
